<?xml version="1.0" encoding="UTF-8" standalone="no"?>
<!-- Created with Inkscape (http://www.inkscape.org/) -->

<svg
   xmlns:dc="http://purl.org/dc/elements/1.1/"
   xmlns:cc="http://creativecommons.org/ns#"
   xmlns:rdf="http://www.w3.org/1999/02/22-rdf-syntax-ns#"
   xmlns:svg="http://www.w3.org/2000/svg"
   xmlns="http://www.w3.org/2000/svg"
   xmlns:sodipodi="http://sodipodi.sourceforge.net/DTD/sodipodi-0.dtd"
   xmlns:inkscape="http://www.inkscape.org/namespaces/inkscape"
   width="128"
   height="128"
   id="svg4654"
   version="1.1"
   inkscape:version="0.48.5 r10040"
   sodipodi:docname="New document 6">
  <defs
     id="defs4656" />
  <sodipodi:namedview
     id="base"
     pagecolor="#ffffff"
     bordercolor="#666666"
     borderopacity="1.0"
     inkscape:pageopacity="0.0"
     inkscape:pageshadow="2"
     inkscape:zoom="4"
     inkscape:cx="128.10932"
     inkscape:cy="90.870611"
     inkscape:current-layer="layer1"
     showgrid="true"
     inkscape:document-units="px"
     inkscape:grid-bbox="true"
     inkscape:snap-global="true"
     inkscape:window-width="1920"
     inkscape:window-height="1035"
     inkscape:window-x="0"
     inkscape:window-y="1"
     inkscape:window-maximized="1">
    <inkscape:grid
       type="xygrid"
       id="grid4662"
       empspacing="8"
       visible="true"
       enabled="true"
       snapvisiblegridlinesonly="true" />
  </sodipodi:namedview>
  <metadata
     id="metadata4659">
    <rdf:RDF>
      <cc:Work
         rdf:about="">
        <dc:format>image/svg+xml</dc:format>
        <dc:type
           rdf:resource="http://purl.org/dc/dcmitype/StillImage" />
        <dc:title></dc:title>
      </cc:Work>
    </rdf:RDF>
  </metadata>
  <g
     id="layer1"
     inkscape:label="Layer 1"
     inkscape:groupmode="layer"
     transform="translate(0,64)">
    <path
       style="fill:#dddddd;fill-opacity:1"
       d="M 8,0 C 3.568,0 0,3.568 0,8 l 0,48 c 0,4.432 3.568,8 8,8 l 48,0 c 4.432,0 8,-3.568 8,-8 L 64,8 C 64,3.568 60.432,0 56,0 L 8,0 z M 14,8 50,8 32,26 14,8 z M 8,14 26,32 8,50 8,14 z M 56,14 56,50 38,32 56,14 z M 32,38 50,56 14,56 32,38 z"
       id="rect4664"
       inkscape:connector-curvature="0" />
    <path
       inkscape:connector-curvature="0"
       id="path5185"
       d="m 8,-64 c -4.432,0 -8,3.568 -8,8 l 0,48 c 0,4.432 3.568,8 8,8 l 48,0 c 4.432,0 8,-3.568 8,-8 l 0,-48 c 0,-4.432 -3.568,-8 -8,-8 l -48,0 z m 6,8 36,0 -18,18 -18,-18 z m -6,6 18,18 -18,18 0,-36 z m 48,0 0,36 -18,-18 18,-18 z m -24,24 18,18 -36,0 18,-18 z"
       style="fill:#222222;fill-opacity:1" />
    <path
       style="fill:#222222;fill-opacity:1"
       d="M 72 0 C 67.568 0 64 3.568 64 8 L 64 56 C 64 60.432 67.568 64 72 64 L 120 64 C 124.432 64 128 60.432 128 56 L 128 8 C 128 3.568 124.432 0 120 0 L 72 0 z M 78 8 L 114 8 C 117.324 8 120 10.676 120 14 L 120 50 C 120 53.324 117.324 56 114 56 L 78 56 C 74.676 56 72 53.324 72 50 L 72 14 C 72 10.676 74.676 8 78 8 z "
       id="path5189"
       transform="translate(0,-64)" />
    <path
       style="fill:#222222;fill-opacity:1"
       d="m 81,-52 c -2.77,0 -5,2.23 -5,5 l 0,30 c 0,2.77 2.23,5 5,5 l 30,0 c 2.77,0 5,-2.23 5,-5 l 0,-30 c 0,-2.77 -2.23,-5 -5,-5 z"
       id="path5194"
       inkscape:connector-curvature="0"
       sodipodi:nodetypes="sssssssss" />
    <path
       id="path5237"
       d="M 72,0 C 67.568,0 64,3.5679999 64,7.9999999 L 64,56 c 0,4.432 3.568,8 8,8 l 48,0 c 4.432,0 8,-3.568 8,-8 L 128,7.9999999 C 128,3.5679999 124.432,0 120,0 L 72,0 z m 6,7.9999999 36,0 c 3.324,0 6,2.6760001 6,6.0000001 l 0,36 c 0,3.324 -2.676,6 -6,6 l -36,0 c -3.324,0 -6,-2.676 -6,-6 l 0,-36 c 0,-3.324 2.676,-6.0000001 6,-6.0000001 z"
       style="fill:#dddddd;fill-opacity:1"
       inkscape:connector-curvature="0" />
    <path
       sodipodi:nodetypes="sssssssss"
       inkscape:connector-curvature="0"
       id="path5239"
       d="m 81,12 c -2.77,0 -5,2.23 -5,5 l 0,30 c 0,2.77 2.23,5 5,5 l 30,0 c 2.77,0 5,-2.23 5,-5 l 0,-30 c 0,-2.77 -2.23,-5 -5,-5 z"
       style="fill:#dddddd;fill-opacity:1" />
  </g>
</svg>
