<?xml version="1.0" encoding="UTF-8" standalone="no"?>
<!-- Created with Inkscape (http://www.inkscape.org/) -->

<svg
   xmlns:dc="http://purl.org/dc/elements/1.1/"
   xmlns:cc="http://creativecommons.org/ns#"
   xmlns:rdf="http://www.w3.org/1999/02/22-rdf-syntax-ns#"
   xmlns:svg="http://www.w3.org/2000/svg"
   xmlns="http://www.w3.org/2000/svg"
   xmlns:sodipodi="http://sodipodi.sourceforge.net/DTD/sodipodi-0.dtd"
   xmlns:inkscape="http://www.inkscape.org/namespaces/inkscape"
   width="256"
   height="128"
   id="svg4051"
   version="1.1"
   inkscape:version="0.48.5 r10040"
   sodipodi:docname="New document 3">
  <defs
     id="defs4053" />
  <sodipodi:namedview
     id="base"
     pagecolor="#ffffff"
     bordercolor="#666666"
     borderopacity="1.0"
     inkscape:pageopacity="0.0"
     inkscape:pageshadow="2"
     inkscape:zoom="2.75"
     inkscape:cx="155.3178"
     inkscape:cy="119.80717"
     inkscape:current-layer="layer1"
     showgrid="true"
     inkscape:document-units="px"
     inkscape:grid-bbox="true"
     inkscape:window-width="1920"
     inkscape:window-height="1035"
     inkscape:window-x="0"
     inkscape:window-y="1"
     inkscape:window-maximized="1">
    <inkscape:grid
       type="xygrid"
       id="grid4059"
       empspacing="8"
       visible="true"
       enabled="true"
       snapvisiblegridlinesonly="true"
       dotted="true" />
    <inkscape:grid
       type="xygrid"
       id="grid4061"
       empspacing="1"
       visible="true"
       enabled="true"
       snapvisiblegridlinesonly="true"
       spacingx="64px"
       spacingy="64px"
       color="#ff0000"
       opacity="0.1254902"
       empcolor="#ff0000"
       empopacity="0.25098039" />
  </sodipodi:namedview>
  <metadata
     id="metadata4056">
    <rdf:RDF>
      <cc:Work
         rdf:about="">
        <dc:format>image/svg+xml</dc:format>
        <dc:type
           rdf:resource="http://purl.org/dc/dcmitype/StillImage" />
        <dc:title></dc:title>
      </cc:Work>
    </rdf:RDF>
  </metadata>
  <g
     id="layer1"
     inkscape:label="Layer 1"
     inkscape:groupmode="layer"
     transform="translate(0,64)">
    <rect
       ry="4.0000038"
       rx="4.8000026"
       y="-64"
       x="0"
       height="8"
       width="64"
       id="rect4573"
       style="fill:#222222;fill-opacity:1" />
    <path
       style="fill:#222222;fill-opacity:1"
       d="M 8,-59.199997 8,0 0,0 0,-59.199997 C 0,-61.859199 1.784,-64 4,-64 c 2.216,0 4,2.140801 4,4.800003 z"
       id="rect4575"
       inkscape:connector-curvature="0"
       sodipodi:nodetypes="sccsss" />
    <path
       style="fill:#222222;fill-opacity:1"
       d="M 64,-59.199997 64,0 56,0 56,-59.199997 C 56,-61.859199 57.784,-64 60,-64 c 2.216,0 4,2.140801 4,4.800003 z"
       id="rect4577"
       inkscape:connector-curvature="0"
       sodipodi:nodetypes="sccsss" />
    <rect
       style="fill:#222222;fill-opacity:1"
       id="rect4581"
       width="64"
       height="8"
       x="64"
       y="-64"
       rx="4.8000026"
       ry="4.0000038" />
    <path
       sodipodi:nodetypes="sccsss"
       inkscape:connector-curvature="0"
       id="path4583"
       d="M 72,-59.199997 72,0 64,0 64,-59.199997 C 64,-61.859199 65.784,-64 68,-64 c 2.216,0 4,2.140801 4,4.800003 z"
       style="fill:#222222;fill-opacity:1" />
    <path
       sodipodi:nodetypes="sccsss"
       inkscape:connector-curvature="0"
       id="path4585"
       d="M 128,-59.199997 128,0 l -8,0 0,-59.199997 C 120,-61.859199 121.784,-64 124,-64 c 2.216,0 4,2.140801 4,4.800003 z"
       style="fill:#222222;fill-opacity:1" />
    <rect
       ry="4.0000038"
       rx="4.8000026"
       y="-64"
       x="128"
       height="8"
       width="64"
       id="rect4587"
       style="fill:#222222;fill-opacity:1" />
    <path
       style="fill:#222222;fill-opacity:1"
       d="M 136,-59.199997 136,0 l -8,0 0,-59.199997 C 128,-61.859199 129.784,-64 132,-64 c 2.216,0 4,2.140801 4,4.800003 z"
       id="path4589"
       inkscape:connector-curvature="0"
       sodipodi:nodetypes="sccsss" />
    <path
       style="fill:#222222;fill-opacity:1"
       d="M 192,-59.199997 192,0 l -8,0 0,-59.199997 C 184,-61.859199 185.784,-64 188,-64 c 2.216,0 4,2.140801 4,4.800003 z"
       id="path4591"
       inkscape:connector-curvature="0"
       sodipodi:nodetypes="sccsss" />
    <rect
       style="fill:#222222;fill-opacity:1"
       id="rect4593"
       width="64"
       height="8"
       x="192"
       y="-64"
       rx="4.8000026"
       ry="4.0000038" />
    <path
       sodipodi:nodetypes="sccsss"
       inkscape:connector-curvature="0"
       id="path4595"
       d="M 200,-59.199997 200,0 l -8,0 0,-59.199997 C 192,-61.859199 193.784,-64 196,-64 c 2.216,0 4,2.140801 4,4.800003 z"
       style="fill:#222222;fill-opacity:1" />
    <path
       sodipodi:nodetypes="sccsss"
       inkscape:connector-curvature="0"
       id="path4597"
       d="M 256,-59.199997 256,0 l -8,0 0,-59.199997 C 248,-61.859199 249.784,-64 252,-64 c 2.216,0 4,2.140801 4,4.800003 z"
       style="fill:#222222;fill-opacity:1" />
    <rect
       style="fill:#222222;fill-opacity:1"
       id="rect4599"
       width="48"
       height="16"
       x="72"
       y="-56"
       rx="0"
       ry="0" />
    <rect
       ry="0"
       rx="0"
       y="-56"
       x="136"
       height="32"
       width="48"
       id="rect4601"
       style="fill:#222222;fill-opacity:1" />
    <rect
       style="fill:#222222;fill-opacity:1"
       id="rect4603"
       width="48"
       height="56"
       x="200"
       y="-56"
       rx="0"
       ry="0" />
    <rect
       style="fill:#dddddd;fill-opacity:1"
       id="rect4605"
       width="64"
       height="8"
       x="0"
       y="-64"
       rx="4.8000026"
       ry="4.0000038"
       transform="scale(1,-1)" />
    <path
       sodipodi:nodetypes="sccsss"
       inkscape:connector-curvature="0"
       id="path4607"
       d="M 8,59.199997 8,-5.1757809e-8 l -8,0 L 0,59.199997 C 0,61.859199 1.784,64 4,64 6.216,64 8,61.859199 8,59.199997 z"
       style="fill:#dddddd;fill-opacity:1" />
    <path
       sodipodi:nodetypes="sccsss"
       inkscape:connector-curvature="0"
       id="path4609"
       d="M 64,59.199997 64,-5.1757809e-8 l -8,0 L 56,59.199997 C 56,61.859199 57.784,64 60,64 c 2.216,0 4,-2.140801 4,-4.800003 z"
       style="fill:#dddddd;fill-opacity:1" />
    <rect
       ry="4.0000038"
       rx="4.8000026"
       y="-64"
       x="64"
       height="8"
       width="64"
       id="rect4611"
       style="fill:#dddddd;fill-opacity:1"
       transform="scale(1,-1)" />
    <path
       style="fill:#dddddd;fill-opacity:1"
       d="M 72,59.199997 72,-5.1757809e-8 l -8,0 L 64,59.199997 C 64,61.859199 65.784,64 68,64 c 2.216,0 4,-2.140801 4,-4.800003 z"
       id="path4613"
       inkscape:connector-curvature="0"
       sodipodi:nodetypes="sccsss" />
    <path
       style="fill:#dddddd;fill-opacity:1"
       d="M 128,59.199997 128,-5.1757809e-8 l -8,0 L 120,59.199997 C 120,61.859199 121.784,64 124,64 c 2.216,0 4,-2.140801 4,-4.800003 z"
       id="path4615"
       inkscape:connector-curvature="0"
       sodipodi:nodetypes="sccsss" />
    <rect
       style="fill:#dddddd;fill-opacity:1"
       id="rect4617"
       width="64"
       height="8"
       x="128"
       y="-64"
       rx="4.8000026"
       ry="4.0000038"
       transform="scale(1,-1)" />
    <path
       sodipodi:nodetypes="sccsss"
       inkscape:connector-curvature="0"
       id="path4619"
       d="M 136,59.199997 136,-5.1757809e-8 l -8,0 L 128,59.199997 C 128,61.859199 129.784,64 132,64 c 2.216,0 4,-2.140801 4,-4.800003 z"
       style="fill:#dddddd;fill-opacity:1" />
    <path
       sodipodi:nodetypes="sccsss"
       inkscape:connector-curvature="0"
       id="path4621"
       d="M 192,59.199997 192,-5.1757809e-8 l -8,0 L 184,59.199997 C 184,61.859199 185.784,64 188,64 c 2.216,0 4,-2.140801 4,-4.800003 z"
       style="fill:#dddddd;fill-opacity:1" />
    <rect
       ry="4.0000038"
       rx="4.8000026"
       y="-64"
       x="192"
       height="8"
       width="64"
       id="rect4623"
       style="fill:#dddddd;fill-opacity:1"
       transform="scale(1,-1)" />
    <path
       style="fill:#dddddd;fill-opacity:1"
       d="M 200,59.199997 200,-5.1757809e-8 l -8,0 L 192,59.199997 C 192,61.859199 193.784,64 196,64 c 2.216,0 4,-2.140801 4,-4.800003 z"
       id="path4625"
       inkscape:connector-curvature="0"
       sodipodi:nodetypes="sccsss" />
    <path
       style="fill:#dddddd;fill-opacity:1"
       d="M 256,59.199997 256,-5.1757809e-8 l -8,0 L 248,59.199997 C 248,61.859199 249.784,64 252,64 c 2.216,0 4,-2.140801 4,-4.800003 z"
       id="path4627"
       inkscape:connector-curvature="0"
       sodipodi:nodetypes="sccsss" />
    <rect
       ry="0"
       rx="0"
       y="-56"
       x="72"
       height="16"
       width="48"
       id="rect4629"
       style="fill:#dddddd;fill-opacity:1"
       transform="scale(1,-1)" />
    <rect
       style="fill:#dddddd;fill-opacity:1"
       id="rect4631"
       width="48"
       height="32"
       x="136"
       y="-56"
       rx="0"
       ry="0"
       transform="scale(1,-1)" />
    <rect
       ry="0"
       rx="0"
       y="-56"
       x="200"
       height="56"
       width="48"
       id="rect4633"
       style="fill:#dddddd;fill-opacity:1"
       transform="scale(1,-1)" />
  </g>
</svg>
